<?xml version="1.0" encoding="UTF-8" ?>
<!DOCTYPE svg PUBLIC "-//W3C//DTD SVG 1.1//EN" "http://www.w3.org/Graphics/SVG/1.1/DTD/svg11.dtd">
<svg width="741pt" height="456pt" viewBox="0 0 741 456" version="1.1" xmlns="http://www.w3.org/2000/svg">
<g id="#7a3b2bd4">
<path fill="#7a3b2b" opacity="0.83" d=" M 57.60 0.00 L 290.57 0.00 L 292.21 0.80 C 265.83 1.18 239.43 0.80 213.05 0.95 C 166.38 0.82 119.71 1.08 73.04 1.02 C 67.35 1.09 61.65 1.15 55.97 0.64 L 57.60 0.00 Z" />
</g>
<g id="#5c31269a">
<path fill="#5c3126" opacity="0.60" d=" M 48.78 1.85 C 49.95 0.76 51.59 0.55 53.08 1.03 C 52.03 2.37 50.25 2.59 48.78 1.85 Z" />
</g>
<g id="#861c00ff">
<path fill="#861c00" opacity="1.00" d=" M 53.08 1.03 C 54.04 0.90 55.01 0.77 55.97 0.64 C 61.65 1.15 67.35 1.09 73.04 1.02 C 119.71 1.08 166.38 0.82 213.05 0.95 C 239.43 0.80 265.83 1.18 292.21 0.80 C 293.78 0.89 295.35 0.96 296.93 1.01 C 297.76 2.21 298.85 2.53 300.22 1.97 C 313.53 5.15 325.49 12.86 333.98 23.59 C 333.82 25.10 334.48 26.01 335.97 26.33 C 341.14 33.25 344.46 41.45 346.20 49.87 C 345.54 51.20 345.23 53.53 347.15 53.94 C 347.16 55.15 347.19 56.35 347.25 57.55 C 346.83 66.02 347.16 74.49 347.05 82.96 C 347.53 93.63 346.90 104.29 347.05 114.96 C 347.00 169.64 347.06 224.31 347.04 278.99 C 347.03 285.13 347.30 291.33 346.31 297.42 C 346.23 297.79 346.08 298.52 346.01 298.89 C 344.79 299.73 344.47 300.84 345.05 302.22 C 343.15 309.15 339.99 315.75 335.59 321.45 C 335.56 321.49 335.50 321.56 335.48 321.60 C 326.47 334.44 312.27 343.01 297.03 346.24 C 295.02 345.30 292.69 345.42 291.00 346.93 C 200.32 347.11 109.65 346.92 18.97 347.02 C 8.96 347.54 -0.33 338.01 0.80 327.95 C 3.83 327.61 6.88 327.44 9.94 327.46 C 98.28 327.68 186.62 327.59 274.97 327.53 C 281.99 327.43 289.05 327.93 296.04 327.08 C 300.60 326.55 304.65 324.22 308.62 322.08 C 310.10 322.15 310.98 321.46 311.28 320.01 C 311.85 319.42 312.42 318.83 313.00 318.25 C 314.95 318.32 316.36 316.75 316.05 314.81 C 317.32 312.45 318.68 310.11 319.76 307.65 C 323.45 298.88 322.71 288.39 317.65 280.32 C 313.60 273.98 307.40 269.01 300.28 266.56 C 294.82 264.37 288.82 264.60 283.05 264.54 C 245.71 264.88 208.37 264.82 171.03 264.51 C 115.99 264.59 60.95 264.42 5.91 264.38 C 4.26 264.35 2.61 264.22 0.97 264.09 C 0.21 251.75 0.81 239.37 0.62 227.01 C 0.71 178.34 0.34 129.67 0.62 81.01 C 0.74 72.36 0.32 63.70 0.88 55.06 C 2.29 54.12 2.61 52.40 2.05 50.87 C 2.02 50.42 1.97 49.52 1.95 49.07 C 3.20 48.25 3.52 47.14 2.89 45.76 C 8.23 24.02 27.12 6.68 48.78 1.85 C 50.25 2.59 52.03 2.37 53.08 1.03 Z" />
</g>
<g id="#4e2e267c">
<path fill="#4e2e26" opacity="0.49" d=" M 296.93 1.01 C 298.25 0.54 299.35 0.86 300.22 1.97 C 298.85 2.53 297.76 2.21 296.93 1.01 Z" />
</g>
<g id="#6e2e1ebf">
<path fill="#6e2e1e" opacity="0.75" d=" M 333.98 23.59 C 335.23 24.07 335.90 24.99 335.97 26.33 C 334.48 26.01 333.82 25.10 333.98 23.59 Z" />
</g>
<g id="#613429a1">
<path fill="#613429" opacity="0.63" d=" M 1.95 49.07 C 1.54 47.76 1.86 46.66 2.89 45.76 C 3.52 47.14 3.20 48.25 1.95 49.07 Z" />
</g>
<g id="#5f33289d">
<path fill="#5f3328" opacity="0.62" d=" M 346.20 49.87 C 347.02 51.07 347.38 52.50 347.15 53.94 C 345.23 53.53 345.54 51.20 346.20 49.87 Z" />
</g>
<g id="#643226aa">
<path fill="#643226" opacity="0.67" d=" M 0.88 55.06 C 0.52 53.54 0.79 51.90 2.05 50.87 C 2.61 52.40 2.29 54.12 0.88 55.06 Z" />
</g>
<g id="#482d266e">
<path fill="#482d26" opacity="0.43" d=" M 347.25 57.55 C 348.32 64.32 347.78 71.17 347.86 77.99 C 348.07 145.00 347.92 212.01 348.00 279.02 C 348.16 285.20 347.96 291.43 346.31 297.42 C 347.30 291.33 347.03 285.13 347.04 278.99 C 347.06 224.31 347.00 169.64 347.05 114.96 C 346.90 104.29 347.53 93.63 347.05 82.96 C 347.16 74.49 346.83 66.02 347.25 57.55 Z" />
</g>
<g id="#daaa63ff">
<path fill="#daaa63" opacity="1.00" d=" M 541.83 109.60 C 548.23 102.18 553.22 93.56 560.28 86.72 C 561.72 90.32 561.44 94.25 561.49 98.04 C 561.51 104.36 561.39 110.69 561.69 117.00 C 570.64 120.40 579.82 123.14 588.75 126.58 C 589.83 127.60 589.34 129.40 587.95 129.74 C 583.56 130.98 579.37 132.82 574.95 133.95 C 570.36 135.38 565.04 136.02 561.33 139.19 C 560.13 148.88 561.94 158.80 560.37 168.45 C 559.62 168.26 558.12 167.86 557.38 167.67 C 553.28 161.20 548.02 155.54 544.20 148.87 C 542.90 147.19 541.56 143.98 538.89 145.22 C 530.84 147.40 522.90 149.98 514.86 152.22 C 513.44 152.48 510.85 153.39 511.39 150.96 C 516.48 143.28 522.36 136.14 527.70 128.64 C 528.85 127.38 528.07 125.85 527.26 124.68 C 522.22 117.42 516.39 110.64 512.23 102.81 C 512.61 102.44 513.36 101.70 513.73 101.33 C 521.62 103.26 529.31 106.00 536.92 108.81 C 538.49 109.36 540.18 109.41 541.83 109.60 Z" />
<path fill="#daaa63" opacity="1.00" d=" M 359.13 117.93 C 358.94 113.95 363.74 116.39 365.68 117.43 C 376.05 124.04 385.57 132.99 390.27 144.59 C 394.31 152.07 395.17 160.65 396.67 168.88 C 396.38 189.86 396.48 210.86 396.53 231.86 C 396.66 235.06 399.48 237.14 401.29 239.50 C 405.69 243.86 410.17 248.17 415.19 251.82 C 420.25 255.89 426.36 258.24 432.33 260.59 C 439.60 262.25 447.20 261.83 454.50 260.60 C 463.82 257.33 472.84 252.80 480.30 246.25 C 483.85 242.85 487.36 239.40 490.97 236.05 C 498.88 227.44 505.39 217.71 512.15 208.22 C 518.29 197.82 524.30 187.33 529.44 176.39 C 530.59 173.95 531.82 171.10 534.60 170.17 C 534.11 178.71 530.50 186.67 528.92 195.02 C 517.33 234.00 500.34 271.18 480.79 306.78 C 477.54 312.28 475.21 318.30 471.33 323.42 C 464.39 335.36 456.83 346.92 449.77 358.79 C 442.21 369.59 434.92 380.57 427.27 391.30 C 421.47 398.54 416.87 406.71 410.57 413.55 C 405.01 421.28 399.00 428.67 393.03 436.08 C 388.86 440.97 385.37 446.50 380.50 450.74 C 380.15 450.77 379.45 450.84 379.10 450.87 C 378.09 447.67 380.05 444.55 380.63 441.46 C 381.65 436.61 383.96 432.05 384.22 427.06 C 384.65 424.47 384.22 421.59 385.91 419.41 C 386.12 391.93 385.94 364.44 386.00 336.96 C 385.91 326.61 386.32 316.25 385.47 305.93 C 384.78 313.98 385.24 322.06 384.75 330.11 C 383.19 337.84 384.75 345.79 383.38 353.55 C 382.41 359.71 383.58 366.00 382.60 372.17 C 381.34 378.41 382.52 384.82 381.57 391.10 C 380.38 398.40 381.62 405.84 380.45 413.14 C 379.61 428.08 370.31 441.94 357.45 449.35 C 353.55 451.33 349.49 453.01 345.39 454.55 C 339.35 455.77 333.16 455.88 327.02 455.84 C 240.71 455.91 154.40 455.63 68.10 455.60 C 58.35 456.13 50.24 447.71 49.32 438.38 C 50.91 435.59 54.36 436.36 57.02 436.21 C 152.04 436.03 247.06 436.06 342.07 435.99 C 348.99 434.76 355.72 431.68 361.01 426.99 C 365.81 422.86 367.77 416.58 369.79 410.80 C 371.82 400.39 368.51 388.66 360.11 381.86 C 355.15 377.77 349.30 374.50 342.91 373.38 C 296.63 372.77 250.33 373.01 204.05 372.97 C 154.69 372.96 105.34 372.87 55.99 372.94 C 53.82 372.96 51.65 372.80 49.51 372.49 C 49.02 368.43 48.78 364.29 49.36 360.24 C 50.39 357.97 53.04 358.40 55.07 358.35 C 132.03 358.24 208.99 358.14 285.95 358.19 C 293.95 358.12 302.12 358.38 309.93 356.33 C 316.29 354.17 322.73 351.97 328.42 348.32 C 336.48 343.31 342.95 336.16 348.54 328.58 C 355.40 316.97 359.33 303.52 358.83 289.97 C 358.88 232.62 358.51 175.26 359.13 117.93 Z" />
<path fill="#daaa63" opacity="1.00" d=" M 436.44 150.44 C 446.91 146.92 458.58 147.10 468.88 151.16 C 480.59 155.79 490.07 165.73 494.28 177.58 C 497.88 184.53 497.41 192.56 496.93 200.13 C 494.24 220.31 476.29 237.21 456.00 238.77 C 449.03 238.85 441.64 239.06 435.25 235.82 C 421.18 230.27 410.10 217.27 407.38 202.33 C 404.94 191.55 407.21 180.02 412.53 170.44 C 417.72 161.08 426.57 154.29 436.44 150.44 Z" />
<path fill="#daaa63" opacity="1.00" d=" M 575.07 247.92 C 588.37 241.00 605.21 241.20 618.17 248.82 C 627.96 254.26 635.40 263.61 638.91 274.21 C 642.86 285.63 641.56 298.53 636.22 309.29 C 630.54 320.05 620.56 328.37 608.96 332.04 C 600.07 334.58 590.32 334.75 581.56 331.60 C 569.03 327.58 558.45 317.67 553.67 305.41 C 544.15 284.54 554.69 257.84 575.07 247.92 Z" />
<path fill="#daaa63" opacity="1.00" d=" M 527.11 246.93 C 527.25 245.56 528.54 245.35 529.60 244.99 C 530.28 252.07 527.86 258.94 527.93 265.99 C 527.91 273.27 526.39 280.56 527.36 287.83 C 527.90 291.55 527.86 295.31 528.16 299.04 C 528.83 302.55 529.80 306.00 530.21 309.56 C 533.26 320.19 538.27 330.72 547.06 337.77 C 550.69 340.85 555.09 342.77 559.36 344.78 C 575.51 350.07 593.06 348.37 609.28 344.30 C 628.54 339.60 646.87 331.66 664.42 322.52 C 668.67 320.60 672.39 317.66 676.82 316.11 C 676.74 316.79 676.57 318.16 676.49 318.84 C 670.91 324.59 664.12 328.95 658.08 334.16 C 649.34 340.34 641.09 347.19 632.02 352.89 C 610.39 367.22 587.79 380.10 564.40 391.29 C 545.15 400.81 525.50 409.65 505.42 417.28 C 492.94 422.41 480.25 427.08 467.43 431.27 C 454.92 435.66 442.32 439.97 429.47 443.27 C 420.24 446.33 410.93 449.29 401.39 451.27 C 395.75 452.74 390.20 454.75 384.38 455.33 C 384.23 453.65 384.70 451.99 386.45 451.42 C 393.79 446.92 400.54 441.57 406.96 435.85 C 415.42 429.03 422.40 420.65 429.66 412.63 C 431.05 410.40 432.97 408.61 434.73 406.70 C 444.16 394.65 453.35 382.41 461.70 369.59 C 462.33 368.56 463.00 367.56 463.70 366.57 C 467.91 359.86 472.29 353.26 476.31 346.43 C 478.12 342.99 480.27 339.75 482.32 336.46 C 483.36 334.44 484.39 332.41 485.72 330.56 C 487.69 326.90 489.58 323.19 491.72 319.61 C 493.06 317.27 494.28 314.86 495.69 312.56 C 496.30 311.20 496.97 309.87 497.69 308.57 C 498.33 307.23 499.00 305.91 499.70 304.60 C 500.51 302.85 501.44 301.17 502.34 299.47 C 504.19 295.38 506.46 291.51 508.35 287.46 C 509.18 285.86 509.96 284.24 510.75 282.63 C 511.55 280.52 512.47 278.46 513.73 276.59 C 518.22 266.72 522.89 256.93 527.11 246.93 Z" />
<path fill="#daaa63" opacity="1.00" d=" M 681.68 254.60 C 682.29 254.25 683.53 253.56 684.14 253.21 C 690.96 260.28 697.63 267.54 704.97 274.07 C 713.77 270.08 722.14 265.13 731.09 261.49 C 733.21 260.41 733.43 263.21 732.53 264.42 C 728.26 272.59 723.92 280.73 719.93 289.03 C 720.39 289.94 720.98 290.78 721.68 291.54 C 727.92 298.15 734.57 304.36 740.70 311.07 C 740.06 311.52 738.78 312.43 738.13 312.89 C 728.78 311.25 719.42 309.64 710.02 308.24 C 705.47 316.38 701.00 324.59 696.95 332.99 C 696.52 334.79 694.61 334.06 693.33 334.16 C 691.92 324.40 690.66 314.62 688.78 304.94 C 678.94 302.52 668.79 301.55 658.86 299.52 C 659.73 294.89 665.15 294.62 668.52 292.47 C 674.17 289.23 680.52 287.11 685.72 283.14 C 684.45 273.62 682.54 264.17 681.68 254.60 Z" />
</g>
<g id="#6033289e">
<path fill="#603328" opacity="0.62" d=" M 345.05 302.22 C 344.47 300.84 344.79 299.73 346.01 298.89 C 346.45 300.22 346.13 301.33 345.05 302.22 Z" />
</g>
<g id="#6b2b1aba">
<path fill="#6b2b1a" opacity="0.73" d=" M 313.00 318.25 C 313.48 316.71 314.55 315.46 316.05 314.81 C 316.36 316.75 314.95 318.32 313.00 318.25 Z" />
</g>
<g id="#722f1ec8">
<path fill="#722f1e" opacity="0.78" d=" M 308.62 322.08 C 309.02 320.77 309.90 320.08 311.28 320.01 C 310.98 321.46 310.10 322.15 308.62 322.08 Z" />
</g>
<g id="#5d3e3691">
<path fill="#5d3e36" opacity="0.57" d=" M 335.48 321.60 C 335.50 321.56 335.56 321.49 335.59 321.45 C 335.56 321.49 335.50 321.56 335.48 321.60 Z" />
</g>
<g id="#5a332993">
<path fill="#5a3329" opacity="0.58" d=" M 291.00 346.93 C 292.69 345.42 295.02 345.30 297.03 346.24 C 295.18 347.27 293.04 347.45 291.00 346.93 Z" />
</g>
</svg>
